<?xml version="1.0" encoding="utf-8"?>
<!-- Generator: Adobe Illustrator 17.1.0, SVG Export Plug-In . SVG Version: 6.00 Build 0)  -->
<!DOCTYPE svg PUBLIC "-//W3C//DTD SVG 1.1//EN" "http://www.w3.org/Graphics/SVG/1.1/DTD/svg11.dtd">
<svg version="1.1" id="Layer_1" xmlns="http://www.w3.org/2000/svg" xmlns:xlink="http://www.w3.org/1999/xlink" x="0px" y="0px"
	 viewBox="0 0 53.4 54.3" enable-background="new 0 0 53.4 54.3" xml:space="preserve" width="25">
<g>
	<g>
		<path fill-rule="evenodd" clip-rule="evenodd" fill="#ffffff" d="M4,36.2H1c-0.6,0-1,0.4-1,1c0,0.6,0.4,1,1,1h3c0.6,0,1-0.4,1-1
			C5,36.7,4.6,36.2,4,36.2z M4,23.2H1c-0.6,0-1,0.4-1,1c0,0.6,0.4,1,1,1h3c0.6,0,1-0.4,1-1C5,23.7,4.6,23.2,4,23.2z M1,12.2h3
			c0.6,0,1-0.4,1-1c0-0.6-0.4-1-1-1H1c-0.6,0-1,0.4-1,1C0,11.8,0.4,12.2,1,12.2z"/>
	</g>
</g>
<path fill-rule="evenodd" clip-rule="evenodd" fill="none" stroke="#ffffff" stroke-width="2" stroke-miterlimit="10" d="M45.2,7.3
	c2.6,0,4.3,0,4.3,0c1.7,0,3,1.3,3,3v40c0,1.7-1.3,3-3,3h-34c-1.7,0-3-1.3-3-3c0,0,0-1.1,0-2.9"/>
<path fill-rule="evenodd" clip-rule="evenodd" fill="none" stroke="#ffffff" stroke-width="2" stroke-miterlimit="10" d="M7.9,1h34
	c1.7,0,3,1.3,3,3v40c0,1.7-1.3,3-3,3h-34c-1.7,0-3-1.3-3-3V4C4.9,2.3,6.2,1,7.9,1z"/>
<g>
	<g>
		<path fill-rule="evenodd" clip-rule="evenodd" fill="#ffffff" d="M32,32.9H17c-0.6,0-1,0.4-1,1s0.4,1,1,1h15c0.6,0,1-0.4,1-1
			S32.6,32.9,32,32.9z M32,21.9H17c-0.6,0-1,0.4-1,1s0.4,1,1,1h15c0.6,0,1-0.4,1-1S32.6,21.9,32,21.9z M17,13.9h15c0.6,0,1-0.4,1-1
			s-0.4-1-1-1H17c-0.6,0-1,0.4-1,1S16.4,13.9,17,13.9z"/>
	</g>
</g>
</svg>
