<?xml version="1.0" encoding="utf-8"?>
<!-- Generator: Adobe Illustrator 17.1.0, SVG Export Plug-In . SVG Version: 6.00 Build 0)  -->
<!DOCTYPE svg PUBLIC "-//W3C//DTD SVG 1.1//EN" "http://www.w3.org/Graphics/SVG/1.1/DTD/svg11.dtd">
<svg version="1.1" id="Layer_1" xmlns="http://www.w3.org/2000/svg" xmlns:xlink="http://www.w3.org/1999/xlink" x="0px" y="0px"
	 viewBox="0 0 54 54" enable-background="new 0 0 54 54" xml:space="preserve" width="28">
<g>
	<g>
		<path fill="#ffffff" d="M27,9c-8.2,0-14.1,6.1-15,12.6c-0.6,4.4,0.8,8.6,3.8,11.8c2.6,2.8,4,6.4,4,10.2l0,6c0,2.4,2,4.4,4.5,4.4
			h5.8c2.5,0,4.5-2,4.5-4.4l0-6c0-3.9,1.3-7.5,3.8-10c2.7-2.8,4.1-6.3,4.1-10C42.3,15.5,35.3,9,27,9z M30,51.7h-5.8
			c-1.2,0-2.1-0.9-2.1-2.1V47h10v2.6h0C32.2,50.8,31.2,51.7,30,51.7z M36.5,32.1c-2.9,3-4.5,7.1-4.5,11.6v1h-10v-1
			c0-4.3-1.8-8.5-4.7-11.7c-2.6-2.8-3.6-6.3-3.2-10c0.8-5.5,6-10.7,12.8-10.7c7.2,0,12.9,5.6,12.9,12.4
			C39.9,26.8,38.7,29.8,36.5,32.1z M28.2,0h-2.3v5.5h2.3V0z M41.2,10.6l1.6,1.6l4-3.9l-1.7-1.6L41.2,10.6z M48.2,24.8v2.3H54v-2.3
			H48.2z M0,27.1h5.8v-2.3H0V27.1z M8.7,6.7L7.1,8.4l4,3.9l1.6-1.6L8.7,6.7z"/>
	</g>
</g>
</svg>
