<?xml version="1.0" encoding="utf-8"?>
<!-- Generator: Adobe Illustrator 17.1.0, SVG Export Plug-In . SVG Version: 6.00 Build 0)  -->
<!DOCTYPE svg PUBLIC "-//W3C//DTD SVG 1.1//EN" "http://www.w3.org/Graphics/SVG/1.1/DTD/svg11.dtd">
<svg version="1.1" id="Layer_1" xmlns="http://www.w3.org/2000/svg" xmlns:xlink="http://www.w3.org/1999/xlink" x="0px" y="0px"
	 viewBox="0 0 64.2 46.1" enable-background="new 0 0 64.2 46.1" xml:space="preserve" width="30">
<path fill-rule="evenodd" clip-rule="evenodd" fill="#ffffff" d="M31,39H1c-0.6,0-1,0.4-1,1s0.4,1,1,1h30c0.6,0,1-0.4,1-1
	S31.6,39,31,39z"/>
<path fill-rule="evenodd" clip-rule="evenodd" fill="#ffffff" d="M1,28h20c0.6,0,1-0.4,1-1s-0.4-1-1-1H1c-0.6,0-1,0.4-1,1
	S0.4,28,1,28z"/>
<path fill-rule="evenodd" clip-rule="evenodd" fill="#ffffff" d="M1,15h20c0.6,0,1-0.4,1-1s-0.4-1-1-1H1c-0.6,0-1,0.4-1,1
	S0.4,15,1,15z"/>
<path fill-rule="evenodd" clip-rule="evenodd" fill="#ffffff" d="M1,2h31c0.6,0,1-0.4,1-1s-0.4-1-1-1H1C0.4,0,0,0.4,0,1S0.4,2,1,2z"
	/>
<path fill-rule="evenodd" clip-rule="evenodd" fill="none" stroke="#ffffff" stroke-width="2" stroke-miterlimit="10" d="M62.9,43.4
	l-9.7-9.7c3-2.8,4.8-6.8,4.8-11.2C58,13.9,51.1,7,42.5,7S27,13.9,27,22.5C27,31.1,33.9,38,42.5,38c3.4,0,6.6-1.1,9.2-3
	c0,0,0,0.1,0.1,0.1l9.7,9.7c0.4,0.4,1,0.4,1.4,0C63.3,44.5,63.3,43.8,62.9,43.4z"/>
</svg>
