<?xml version="1.0" encoding="utf-8"?>
<!-- Generator: Adobe Illustrator 17.1.0, SVG Export Plug-In . SVG Version: 6.00 Build 0)  -->
<!DOCTYPE svg PUBLIC "-//W3C//DTD SVG 1.1//EN" "http://www.w3.org/Graphics/SVG/1.1/DTD/svg11.dtd">
<svg version="1.1" id="Layer_1" xmlns="http://www.w3.org/2000/svg" xmlns:xlink="http://www.w3.org/1999/xlink" x="0px" y="0px"
	 viewBox="0 0 53 53" enable-background="new 0 0 53 53" xml:space="preserve" width="25">
<g>
	<g>
		<path fill="#ffffff" d="M50.8,23.8h-3.1v-5.5c0-1.3-1.1-2.4-2.4-2.4h-2.9v-2.1L42,13.3c0,0,0,0,0,0l-6.4-6.4L28.6,0H7.1v9.7H2.4
			C1.1,9.7,0,10.8,0,12.1v38.6h0c0,0.5,0.2,1,0.5,1.4C0.9,52.7,1.6,53,2.3,53h39.5c1,0,1.9-0.7,2.2-1.6l9-24.8v-0.2
			C53,25,52.1,23.8,50.8,23.8z M42.4,17.7h2.9c0.4,0,0.6,0.3,0.6,0.6v5.5h-3.5V17.7z M29.2,3l10.2,10.2H29.2V3z M8.8,1.8h18.5V15
			h13.3v8.8H11.2c-0.1,0-0.3,0-0.4,0C10,24,9.3,24.7,9.1,25.5l-0.2,0.7V1.8z M1.8,12.1c0-0.4,0.3-0.6,0.6-0.6h4.7v19.5L1.8,45.4
			V12.1z M42.3,50.9c-0.1,0.2-0.3,0.4-0.5,0.4H2.3c-0.2,0-0.3-0.1-0.4-0.2c-0.1-0.1-0.1-0.2-0.1-0.4l5.3-14.6v0l3.7-10.1l0-0.1
			c0.1-0.2,0.3-0.4,0.5-0.4h39.5c0.3,0,0.4,0.5,0.4,0.7L42.3,50.9z M14.1,15H23c0.5,0,0.9-0.4,0.9-0.9s-0.4-0.9-0.9-0.9h-8.8
			c-0.5,0-0.9,0.4-0.9,0.9S13.6,15,14.1,15z M14.1,8.8H23c0.5,0,0.9-0.4,0.9-0.9c0-0.5-0.4-0.9-0.9-0.9h-8.8c-0.5,0-0.9,0.4-0.9,0.9
			C13.3,8.4,13.6,8.8,14.1,8.8z M14.1,21.2h21.2c0.5,0,0.9-0.4,0.9-0.9c0-0.5-0.4-0.9-0.9-0.9H14.1c-0.5,0-0.9,0.4-0.9,0.9
			C13.3,20.8,13.6,21.2,14.1,21.2z"/>
	</g>
</g>
</svg>
