<?xml version="1.0" encoding="utf-8"?>
<!-- Generator: Adobe Illustrator 17.1.0, SVG Export Plug-In . SVG Version: 6.00 Build 0)  -->
<!DOCTYPE svg PUBLIC "-//W3C//DTD SVG 1.1//EN" "http://www.w3.org/Graphics/SVG/1.1/DTD/svg11.dtd">
<svg version="1.1" id="Layer_1" xmlns="http://www.w3.org/2000/svg" xmlns:xlink="http://www.w3.org/1999/xlink" x="0px" y="0px"
	 viewBox="0 0 39 55" enable-background="new 0 0 39 55" xml:space="preserve" width="20">
<g>
	<g>
		<path fill-rule="evenodd" clip-rule="evenodd" fill="#ffffff" d="M17,51.3h5v-3h-5V51.3z M2,44.3v2h36v-2H2z"/>
	</g>
</g>
<g>
	<g>
		<path fill="none" stroke="#ffffff" stroke-width="2" stroke-miterlimit="10" d="M21,25.7h-3c-1.1,0-2,0.9-2,2v3c0,1.1,0.9,2,2,2h3
			c1.1,0,2-0.9,2-2v-3C23,26.6,22.1,25.7,21,25.7z M11,25.7H8c-1.1,0-2,0.9-2,2v3c0,1.1,0.9,2,2,2h3c1.1,0,2-0.9,2-2v-3
			C13,26.6,12.1,25.7,11,25.7z M31,15.7h-3c-1.1,0-2,0.9-2,2v3c0,1.1,0.9,2,2,2h3c1.1,0,2-0.9,2-2v-3C33,16.6,32.1,15.7,31,15.7z
			 M21,15.7h-3c-1.1,0-2,0.9-2,2v3c0,1.1,0.9,2,2,2h3c1.1,0,2-0.9,2-2v-3C23,16.6,22.1,15.7,21,15.7z M11,15.7H8c-1.1,0-2,0.9-2,2v3
			c0,1.1,0.9,2,2,2h3c1.1,0,2-0.9,2-2v-3C13,16.6,12.1,15.7,11,15.7z M31,5.7h-3c-1.1,0-2,0.9-2,2v3c0,1.1,0.9,2,2,2h3
			c1.1,0,2-0.9,2-2v-3C33,6.6,32.1,5.7,31,5.7z M21,5.7h-3c-1.1,0-2,0.9-2,2v3c0,1.1,0.9,2,2,2h3c1.1,0,2-0.9,2-2v-3
			C23,6.6,22.1,5.7,21,5.7z M11,5.7H8c-1.1,0-2,0.9-2,2v3c0,1.1,0.9,2,2,2h3c1.1,0,2-0.9,2-2v-3C13,6.6,12.1,5.7,11,5.7z"/>
	</g>
</g>
<path fill-rule="evenodd" clip-rule="evenodd" fill="none" stroke="#ffffff" stroke-width="2" stroke-miterlimit="10" d="M4,1h31
	c1.7,0,3,1.3,3,3v47c0,1.7-1.3,3-3,3H4c-1.7,0-3-1.3-3-3V4C1,2.3,2.3,1,4,1z"/>
</svg>
