<?xml version="1.0" encoding="utf-8"?>
<!-- Generator: Adobe Illustrator 17.1.0, SVG Export Plug-In . SVG Version: 6.00 Build 0)  -->
<!DOCTYPE svg PUBLIC "-//W3C//DTD SVG 1.1//EN" "http://www.w3.org/Graphics/SVG/1.1/DTD/svg11.dtd">
<svg version="1.1" id="Layer_1" xmlns="http://www.w3.org/2000/svg" xmlns:xlink="http://www.w3.org/1999/xlink" x="0px" y="0px"
	 viewBox="0 0 21.7 21.7" enable-background="new 0 0 21.7 21.7" xml:space="preserve">
<path fill-rule="evenodd" clip-rule="evenodd" fill="#CCCCCC" d="M21.5,21.5c-0.2,0.2-0.5,0.2-0.7,0l-4.2-4.2
	c0.2-0.2,0.5-0.4,0.7-0.7l4.2,4.2C21.7,21,21.7,21.3,21.5,21.5z M9.5,19.1C4.3,19.1,0,14.8,0,9.5C0,4.3,4.3,0,9.5,0s9.5,4.3,9.5,9.5
	C19.1,14.8,14.8,19.1,9.5,19.1z M9.5,1C4.8,1,1,4.8,1,9.5c0,4.7,3.8,8.6,8.6,8.6c4.7,0,8.6-3.8,8.6-8.6C18.1,4.8,14.3,1,9.5,1z"/>
</svg>
