<?xml version="1.0" encoding="utf-8"?>
<!-- Generator: Adobe Illustrator 17.1.0, SVG Export Plug-In . SVG Version: 6.00 Build 0)  -->
<!DOCTYPE svg PUBLIC "-//W3C//DTD SVG 1.1//EN" "http://www.w3.org/Graphics/SVG/1.1/DTD/svg11.dtd">
<svg version="1.1" id="Layer_1" xmlns="http://www.w3.org/2000/svg" xmlns:xlink="http://www.w3.org/1999/xlink" x="0px" y="0px"
	 viewBox="0 0 41.4 43.4" enable-background="new 0 0 41.4 43.4" xml:space="preserve">
<path fill="#ffffff" d="M40.7,25.3l-2.4-2.3c-1-0.9-2.6-0.9-3.5,0L21.9,35.4l-1.8,6.2L19.7,42c-0.3,0.3-0.3,0.8,0,1.1l0,0l0,0
	c0.2,0.2,0.4,0.2,0.6,0.2c0.2,0,0.4-0.1,0.6-0.2l0.4-0.4l6.5-1.7l12.9-12.3C41.7,27.8,41.7,26.3,40.7,25.3z M23.8,35.8l8.6-8.2
	l3.6,3.4l-8.6,8.2L23.8,35.8z M23.1,37.3l2.7,2.6l-3.7,1L23.1,37.3z M39.5,27.6l-2.4,2.3l-3.6-3.4l2.4-2.3c0.3-0.3,0.8-0.3,1.2,0
	l2.4,2.3C39.8,26.8,39.8,27.3,39.5,27.6z"/>
<path fill-rule="evenodd" clip-rule="evenodd" fill="none" stroke="#ffffff" stroke-width="1.5" stroke-miterlimit="10" d="
	M18.4,39.9H8.6c-1.2,0-2.2-1-2.2-2.2c0,0,0-0.8,0-2.2 M30.9,5.4c1.9,0,3.2,0,3.2,0c1.2,0,2.2,1,2.2,2.2v12.2"/>
<path fill-rule="evenodd" clip-rule="evenodd" fill="none" stroke="#ffffff" stroke-width="1.5" stroke-miterlimit="10" d="
	M19.7,35.2H3c-1.2,0-2.2-1-2.2-2.2V3c0-1.2,1-2.2,2.2-2.2h25.5c1.2,0,2.2,1,2.2,2.2v20.9"/>
<path fill-rule="evenodd" clip-rule="evenodd" fill="#ffffff" d="M8.4,16.8h13.8c0.4,0,0.7-0.4,0.7-0.8s-0.3-0.8-0.7-0.8H8.4
	c-0.4,0-0.7,0.4-0.7,0.8S8,16.8,8.4,16.8z"/>
<path fill-rule="evenodd" clip-rule="evenodd" fill="#ffffff" d="M8.4,10h13.8c0.4,0,0.7-0.4,0.7-0.8s-0.3-0.8-0.7-0.8H8.4
	C8,8.4,7.7,8.8,7.7,9.2S8,10,8.4,10z"/>
</svg>
