<?xml version="1.0" encoding="utf-8"?>
<!-- Generator: Adobe Illustrator 17.1.0, SVG Export Plug-In . SVG Version: 6.00 Build 0)  -->
<!DOCTYPE svg PUBLIC "-//W3C//DTD SVG 1.1//EN" "http://www.w3.org/Graphics/SVG/1.1/DTD/svg11.dtd">
<svg version="1.1" id="Layer_1" xmlns="http://www.w3.org/2000/svg" xmlns:xlink="http://www.w3.org/1999/xlink" x="0px" y="0px"
	 viewBox="0 0 37.1 40.6" enable-background="new 0 0 37.1 40.6" xml:space="preserve">
<g>
	<g>
		<path fill="#ffffff" d="M25.9,15.8c0-0.2-0.1-0.3-0.3-0.4c-0.1-0.1-0.3-0.1-0.5-0.1c-0.4,0.1-0.7,0.1-1.1-0.1
			c-0.9-0.3-1.3-1.3-1-2.2c0.1-0.3,0.4-0.6,0.7-0.8c0.1-0.1,0.2-0.2,0.3-0.4c0-0.2,0-0.3-0.1-0.4c-0.6-0.8-1.4-1.5-2.2-2.1
			c-0.1-0.1-0.3-0.1-0.4-0.1c-0.2,0-0.3,0.1-0.4,0.3c-0.2,0.3-0.5,0.5-0.8,0.7c-0.2,0.1-0.5,0.1-0.7,0.1c-0.7,0-1.3-0.4-1.6-1
			c-0.1-0.3-0.2-0.7-0.1-1c0-0.2,0-0.3-0.1-0.4c-0.1-0.1-0.2-0.2-0.4-0.2c-1-0.1-2.1-0.1-3.1,0c-0.2,0-0.3,0.1-0.4,0.2
			c-0.1,0.1-0.1,0.3-0.1,0.4c0.1,0.3,0.1,0.7-0.1,1c-0.3,0.7-0.9,1.1-1.6,1.1c-0.2,0-0.4,0-0.6-0.1c-0.3-0.1-0.6-0.4-0.8-0.7
			c-0.1-0.1-0.2-0.2-0.4-0.2c-0.2,0-0.3,0-0.4,0.1c-0.8,0.6-1.6,1.4-2.2,2.2c-0.1,0.1-0.1,0.3-0.1,0.4c0,0.2,0.1,0.3,0.3,0.4
			c0.3,0.2,0.6,0.4,0.7,0.8c0.2,0.4,0.2,0.9,0,1.3c-0.2,0.4-0.5,0.8-0.9,1c-0.3,0.1-0.7,0.2-1.1,0.1c-0.2,0-0.3,0-0.5,0.1
			c-0.1,0.1-0.2,0.2-0.2,0.4c-0.1,1-0.1,2.1,0,3.1c0,0.2,0.1,0.3,0.3,0.4c0.1,0.1,0.3,0.1,0.5,0.1c0.4-0.1,0.7-0.1,1.1,0.1
			c0.4,0.2,0.8,0.5,1,0.9c0.2,0.4,0.2,0.9,0,1.3c-0.1,0.3-0.4,0.6-0.7,0.8c-0.1,0.1-0.2,0.2-0.3,0.4c0,0.2,0,0.3,0.1,0.4
			c0.6,0.8,1.4,1.6,2.3,2.2c0.1,0.1,0.3,0.1,0.5,0.1c0.2,0,0.3-0.1,0.4-0.3c0.2-0.3,0.5-0.6,0.8-0.7c0.2-0.1,0.5-0.1,0.7-0.1
			c0.7,0,1.3,0.4,1.6,1c0.2,0.3,0.2,0.7,0.1,1.1c0,0.2,0,0.3,0.1,0.4c0.1,0.1,0.2,0.2,0.4,0.2c0.5,0.1,0.9,0.1,1.4,0.1
			c0.6,0,1.2,0,1.7-0.1c0.2,0,0.3-0.1,0.4-0.3c0.1-0.1,0.1-0.3,0.1-0.4c-0.1-0.4-0.1-0.7,0.1-1.1c0.3-0.7,0.9-1.1,1.6-1.1
			c0.2,0,0.4,0,0.6,0.1c0.3,0.1,0.6,0.4,0.8,0.7c0.1,0.1,0.2,0.2,0.4,0.3c0.2,0,0.3,0,0.4-0.1c0.8-0.6,1.6-1.4,2.2-2.2
			c0.1-0.1,0.1-0.3,0.1-0.4c0-0.2-0.1-0.3-0.3-0.4c-0.3-0.2-0.6-0.5-0.7-0.8c-0.4-0.9,0-1.9,0.9-2.3c0.3-0.1,0.7-0.2,1.1-0.1
			c0.2,0,0.3,0,0.5-0.1c0.1-0.1,0.2-0.2,0.2-0.4C26.1,17.9,26.1,16.9,25.9,15.8z M24.9,18.2c-0.4,0-0.8,0.1-1.2,0.2
			c-1.5,0.6-2.1,2.3-1.5,3.8c0.2,0.4,0.4,0.7,0.7,0.9c-0.3,0.4-0.7,0.8-1.2,1.2c-0.3-0.3-0.6-0.5-1-0.7c-0.3-0.1-0.7-0.2-1-0.2
			c-1.2,0-2.3,0.7-2.7,1.8c-0.1,0.4-0.2,0.7-0.2,1.1c-0.6,0.1-1.1,0.1-1.7,0c0-0.4-0.1-0.8-0.2-1.2c-0.5-1-1.5-1.7-2.6-1.7
			c-0.4,0-0.8,0.1-1.2,0.2c-0.4,0.2-0.7,0.4-0.9,0.7c-0.4-0.3-0.8-0.7-1.2-1.1c0.3-0.3,0.5-0.6,0.7-1c0.3-0.7,0.3-1.5-0.1-2.2
			c-0.3-0.7-0.9-1.2-1.6-1.5c-0.4-0.1-0.7-0.2-1.1-0.2c-0.1-0.5-0.1-1.1,0-1.6h0c0.4,0,0.8-0.1,1.2-0.2c0.7-0.3,1.2-0.9,1.5-1.6
			c0.3-0.7,0.3-1.5-0.1-2.2C9.2,12.5,9,12.2,8.7,12c0.4-0.4,0.7-0.8,1.2-1.2c0.3,0.3,0.6,0.5,1,0.6c0.3,0.1,0.7,0.2,1,0.2
			c1.2,0,2.3-0.7,2.7-1.8c0.1-0.3,0.2-0.7,0.2-1.1c0.6-0.1,1.1-0.1,1.7,0c0,0.4,0.1,0.8,0.2,1.1c0.5,1,1.5,1.7,2.6,1.7
			c0.4,0,0.8-0.1,1.2-0.2c0.3-0.2,0.7-0.4,0.9-0.6c0.4,0.3,0.8,0.7,1.2,1.1c-0.3,0.3-0.5,0.6-0.6,1c-0.6,1.5,0.2,3.1,1.7,3.7
			c0.4,0.1,0.7,0.2,1.1,0.2C24.9,17.1,24.9,17.7,24.9,18.2z M15.8,13.2c-0.6,0-1.2,0.1-1.8,0.4c-2.2,1-3.2,3.5-2.2,5.7
			c0.7,1.6,2.3,2.6,4,2.6c0.6,0,1.2-0.1,1.8-0.4c2.2-1,3.2-3.5,2.2-5.7C19.1,14.2,17.5,13.2,15.8,13.2z M17.1,20.5
			c-0.4,0.2-0.9,0.3-1.3,0.3c-1.3,0-2.5-0.7-3-1.9c-0.7-1.6,0-3.5,1.6-4.2c0.4-0.2,0.9-0.3,1.3-0.3c1.3,0,2.5,0.7,3,1.9
			C19.5,17.9,18.8,19.8,17.1,20.5z"/>
	</g>
</g>
<path fill-rule="evenodd" clip-rule="evenodd" fill="none" stroke="#ffffff" stroke-width="1.5" stroke-miterlimit="10" d="
	M30.9,5.4c1.9,0,3.2,0,3.2,0c1.2,0,2.2,1,2.2,2.2v30c0,1.2-1,2.2-2.2,2.2H8.6c-1.2,0-2.2-1-2.2-2.2c0,0,0-0.8,0-2.2"/>
<path fill-rule="evenodd" clip-rule="evenodd" fill="none" stroke="#ffffff" stroke-width="1.5" stroke-miterlimit="10" d="M3,0.8
	h25.5c1.2,0,2.2,1,2.2,2.2v30c0,1.2-1,2.2-2.2,2.2H3c-1.2,0-2.2-1-2.2-2.2V3C0.8,1.8,1.8,0.8,3,0.8z"/>
</svg>
