<?xml version="1.0" encoding="utf-8"?>
<!-- Generator: Adobe Illustrator 17.1.0, SVG Export Plug-In . SVG Version: 6.00 Build 0)  -->
<!DOCTYPE svg PUBLIC "-//W3C//DTD SVG 1.1//EN" "http://www.w3.org/Graphics/SVG/1.1/DTD/svg11.dtd">
<svg version="1.1" id="Layer_1" xmlns="http://www.w3.org/2000/svg" xmlns:xlink="http://www.w3.org/1999/xlink" x="0px" y="0px"
	 viewBox="0 0 40.9 40.6" enable-background="new 0 0 40.9 40.6" xml:space="preserve">
<g>
	<g>
		<path fill-rule="evenodd" clip-rule="evenodd" fill="#ffffff" d="M3.3,27.6H0.8c-0.4,0-0.8,0.4-0.8,0.8c0,0.4,0.4,0.8,0.8,0.8h2.4
			c0.4,0,0.8-0.4,0.8-0.8C4.1,27.9,3.7,27.6,3.3,27.6z M3.3,17H0.8C0.4,17,0,17.4,0,17.8c0,0.4,0.4,0.8,0.8,0.8h2.4
			c0.4,0,0.8-0.4,0.8-0.8C4.1,17.4,3.7,17,3.3,17z M0.8,8.1h2.4c0.4,0,0.8-0.4,0.8-0.8c0-0.4-0.4-0.8-0.8-0.8H0.8
			C0.4,6.4,0,6.8,0,7.3C0,7.7,0.4,8.1,0.8,8.1z"/>
	</g>
</g>
<path fill-rule="evenodd" clip-rule="evenodd" fill="none" stroke="#ffffff" stroke-width="1.5" stroke-miterlimit="10" d="
	M34.7,5.4c1.9,0,3.2,0,3.2,0c1.2,0,2.2,1,2.2,2.2v30c0,1.2-1,2.2-2.2,2.2H12.4c-1.2,0-2.2-1-2.2-2.2c0,0,0-0.8,0-2.2"/>
<path fill-rule="evenodd" clip-rule="evenodd" fill="none" stroke="#ffffff" stroke-width="1.5" stroke-miterlimit="10" d="M6.8,0.8
	h25.5c1.2,0,2.2,1,2.2,2.2v30c0,1.2-1,2.2-2.2,2.2H6.8c-1.2,0-2.2-1-2.2-2.2V3C4.5,1.8,5.5,0.8,6.8,0.8z"/>
<g>
	<g>
		<path fill-rule="evenodd" clip-rule="evenodd" fill="#ffffff" d="M24.9,24.9H13.9c-0.4,0-0.7,0.3-0.7,0.7c0,0.4,0.3,0.7,0.7,0.7
			h11.1c0.4,0,0.7-0.3,0.7-0.7C25.7,25.2,25.3,24.9,24.9,24.9z M24.9,16.8H13.9c-0.4,0-0.7,0.3-0.7,0.7c0,0.4,0.3,0.7,0.7,0.7h11.1
			c0.4,0,0.7-0.3,0.7-0.7C25.7,17.1,25.3,16.8,24.9,16.8z M13.9,10.9h11.1c0.4,0,0.7-0.3,0.7-0.7c0-0.4-0.3-0.7-0.7-0.7H13.9
			c-0.4,0-0.7,0.3-0.7,0.7C13.1,10.5,13.5,10.9,13.9,10.9z"/>
	</g>
</g>
</svg>
