<?xml version="1.0" encoding="utf-8"?>
<!-- Generator: Adobe Illustrator 17.1.0, SVG Export Plug-In . SVG Version: 6.00 Build 0)  -->
<!DOCTYPE svg PUBLIC "-//W3C//DTD SVG 1.1//EN" "http://www.w3.org/Graphics/SVG/1.1/DTD/svg11.dtd">
<svg version="1.1" id="Layer_1" xmlns="http://www.w3.org/2000/svg" xmlns:xlink="http://www.w3.org/1999/xlink" x="0px" y="0px"
	 viewBox="0 0 39 60" enable-background="new 0 0 39 60" xml:space="preserve">
<path fill="#00548E" d="M21,49.4V57h10.5c0.8,0,1.5,0.7,1.5,1.5c0,0.8-0.7,1.5-1.5,1.5h-24C6.7,60,6,59.3,6,58.5
	C6,57.7,6.7,57,7.5,57H18v-7.6C7.9,48.7,0,40.2,0,30c0-0.8,0.7-1.5,1.5-1.5S3,29.2,3,30c0,9.1,7.4,16.5,16.5,16.5S36,39.1,36,30
	c0-0.8,0.7-1.5,1.5-1.5c0.8,0,1.5,0.7,1.5,1.5C39,40.3,31,48.7,21,49.4z M30.7,11.2V30c0,6.2-5,11.2-11.2,11.2
	c-6.2,0-11.3-5-11.3-11.2V11.2C8.3,5,13.3,0,19.5,0C25.7,0,30.7,5,30.7,11.2z M27.8,11.2c0-4.6-3.7-8.2-8.3-8.2s-8.3,3.7-8.3,8.2V30
	c0,4.6,3.7,8.3,8.3,8.3s8.3-3.7,8.3-8.3V11.2z"/>
</svg>
