<?xml version="1.0" encoding="utf-8"?>
<!-- Generator: Adobe Illustrator 17.1.0, SVG Export Plug-In . SVG Version: 6.00 Build 0)  -->
<!DOCTYPE svg PUBLIC "-//W3C//DTD SVG 1.1//EN" "http://www.w3.org/Graphics/SVG/1.1/DTD/svg11.dtd">
<svg version="1.1" id="Layer_1" xmlns="http://www.w3.org/2000/svg" xmlns:xlink="http://www.w3.org/1999/xlink" x="0px" y="0px"
	 viewBox="0 0 31 30" enable-background="new 0 0 31 30" xml:space="preserve">
<g>
	<g>
		<path fill="#0089CF" d="M2.2,24.6V6.3h25.6v13.6l2.2,2.1V1.8c0-1-0.8-1.8-1.8-1.8H1.8C0.8,0,0,0.8,0,1.8V25c0,1,0.8,1.8,1.8,1.8
			h18.3c-1-1.4-1-2.1-1-2.1H2.2z M25.8,3c0-0.4,0.3-0.7,0.7-0.7h0.7c0.4,0,0.7,0.3,0.7,0.7v0.7c0,0.4-0.3,0.7-0.7,0.7h-0.7
			c-0.4,0-0.7-0.3-0.7-0.7V3z M22.7,3c0-0.4,0.3-0.7,0.7-0.7h0.7c0.4,0,0.7,0.3,0.7,0.7v0.7c0,0.4-0.3,0.7-0.7,0.7h-0.7
			c-0.4,0-0.7-0.3-0.7-0.7V3z M19.6,3c0-0.4,0.3-0.7,0.7-0.7H21c0.4,0,0.7,0.3,0.7,0.7v0.7c0,0.4-0.3,0.7-0.7,0.7h-0.7
			c-0.4,0-0.7-0.3-0.7-0.7V3z M30,24l-3.1-3.1c-0.7-0.7-1.7-1-2.6-0.9c0.1-0.9-0.2-1.9-1-2.5l-3.1-3.1c-1.3-1.3-3.4-1.3-4.7,0
			L15,14.8c-1.3,1.3-1.3,3.3,0,4.6l3.1,3.1c0.7,0.7,1.7,1,2.6,0.9c-0.1,0.9,0.2,1.9,1,2.5l3.1,3.1c1.3,1.3,3.4,1.3,4.7,0l0.5-0.5
			C31.3,27.3,31.3,25.2,30,24z M20,20.4l1.3,1.3c-0.7,0.4-1.5,0.3-2.1-0.3l-3.1-3.1c-0.7-0.7-0.7-1.7,0-2.4l0.5-0.5
			c0.7-0.7,1.8-0.7,2.4,0l3.1,3.1c0.6,0.6,0.7,1.4,0.3,2.1l-1.3-1.3c-0.3-0.3-0.8-0.3-1.1,0C19.7,19.6,19.7,20.1,20,20.4z
			 M28.9,27.5L28.4,28c-0.7,0.7-1.8,0.7-2.4,0l-3.1-3.1c-0.6-0.6-0.7-1.4-0.3-2.1l1.3,1.3c0.3,0.3,0.8,0.3,1.1,0
			c0.3-0.3,0.3-0.8,0-1.1l-1.3-1.3c0.7-0.4,1.5-0.3,2.1,0.3l3.1,3.1C29.6,25.7,29.6,26.8,28.9,27.5z"/>
	</g>
</g>
</svg>
