<?xml version="1.0" encoding="utf-8"?>
<!-- Generator: Adobe Illustrator 17.1.0, SVG Export Plug-In . SVG Version: 6.00 Build 0)  -->
<!DOCTYPE svg PUBLIC "-//W3C//DTD SVG 1.1//EN" "http://www.w3.org/Graphics/SVG/1.1/DTD/svg11.dtd">
<svg version="1.1" id="Layer_1" xmlns="http://www.w3.org/2000/svg" xmlns:xlink="http://www.w3.org/1999/xlink" x="0px" y="0px"
	 viewBox="0 0 38 29" enable-background="new 0 0 38 29" xml:space="preserve">
<g>
	<g>
		<path fill="#ffffff" d="M37.2,0H0.8C0.3,0,0,0.3,0,0.8v27.5C0,28.7,0.3,29,0.8,29h36.4c0.4,0,0.8-0.3,0.8-0.8V0.8
			C38,0.3,37.7,0,37.2,0z M36.4,27.5H1.6V6.7h34.9V27.5z M36.4,5.2H1.6V1.5h34.9V5.2z M4.9,4.1h0.4c0.4,0,0.8-0.3,0.8-0.8
			c0-0.4-0.3-0.8-0.8-0.8H4.9c-0.4,0-0.8,0.3-0.8,0.8C4.1,3.8,4.4,4.1,4.9,4.1z M8,4.1h0.4c0.4,0,0.8-0.3,0.8-0.8
			c0-0.4-0.3-0.8-0.8-0.8H8c-0.4,0-0.8,0.3-0.8,0.8C7.3,3.8,7.6,4.1,8,4.1z M11.2,4.1h0.4c0.4,0,0.8-0.3,0.8-0.8
			c0-0.4-0.3-0.8-0.8-0.8h-0.4c-0.4,0-0.8,0.3-0.8,0.8C10.5,3.8,10.8,4.1,11.2,4.1z M22.9,12.7c0.9,0.2,1.6,1,1.8,1.9
			c0.1,0.4,0.4,0.7,0.8,0.7c0,0,0.1,0,0.1,0c0.4-0.1,0.7-0.4,0.7-0.9c-0.2-1.5-1.4-2.8-2.9-3.2c-0.4-0.1-0.8,0.2-0.9,0.6
			C22.3,12.2,22.5,12.6,22.9,12.7z M22.4,21.8c1.7,0,3.2-0.6,4.4-1.5l6.5,5.9c0.1,0.1,0.3,0.2,0.5,0.2c0.2,0,0.4-0.1,0.6-0.2
			c0.3-0.3,0.3-0.8,0-1.1l-6.4-5.9c0.9-1.2,1.5-2.7,1.5-4.3c0-3.8-3.1-6.9-7-6.9c-3.9,0-7,3.1-7,6.9C15.4,18.7,18.5,21.8,22.4,21.8z
			 M22.4,9.6c3,0,5.4,2.4,5.4,5.3c0,2.9-2.4,5.3-5.4,5.3c-3,0-5.4-2.4-5.4-5.3C17,12,19.4,9.6,22.4,9.6z"/>
	</g>
</g>
</svg>
