<?xml version="1.0" encoding="utf-8"?>
<!-- Generator: Adobe Illustrator 17.1.0, SVG Export Plug-In . SVG Version: 6.00 Build 0)  -->
<!DOCTYPE svg PUBLIC "-//W3C//DTD SVG 1.1//EN" "http://www.w3.org/Graphics/SVG/1.1/DTD/svg11.dtd">
<svg version="1.1" id="Layer_1" xmlns="http://www.w3.org/2000/svg" xmlns:xlink="http://www.w3.org/1999/xlink" x="0px" y="0px"
	 viewBox="0 0 81 73" enable-background="new 0 0 81 73" xml:space="preserve">
<g>
	<g>
		<path fill="#FFFFFF" d="M35.1,35.1H27v18.9h2.7V46h5.4c3,0,5.4-2.4,5.4-5.4C40.5,37.6,38.1,35.1,35.1,35.1z M35.1,43.3h-5.4v-5.4
			h5.4c1.6,0,2.7,1.1,2.7,2.7C37.8,42.2,36.7,43.3,35.1,43.3z M51.3,35.1h-8.1v18.9h8.1c3,0,5.4-2.4,5.4-5.4v-8.1
			C56.7,37.6,54.3,35.1,51.3,35.1z M54,48.7c0,1.6-1.1,2.7-2.7,2.7h-5.4V37.9h5.4c1.6,0,2.7,1.1,2.7,2.7V48.7z M72.9,27H51.3v-8.1
			L35.1,0H5.4C2.4,0,0,2.4,0,5.4v62.2c0,3,2.4,5.4,5.4,5.4h40.5c3,0,5.4-2.4,5.4-5.4v-5.4h21.6c4.6,0,8.1-3.5,8.1-8.1V35.1
			C81,30.6,77.5,27,72.9,27z M35.1,4.1l12.7,14.9h-10c-1.3,0-2.7-1.4-2.7-2.7V4.1z M48.6,67.6c0,1.4-1.1,2.7-2.7,2.7H5.4
			c-1.4,0-2.7-1.1-2.7-2.7V5.4c0-1.4,1.1-2.7,2.7-2.7h27v13.5c0,3,2.4,5.4,5.4,5.4h10.8V27H27c-4.6,0-8.1,3.5-8.1,8.1v18.9
			c0,4.6,3.5,8.1,8.1,8.1h21.6V67.6z M78.3,54.1c0,3-2.4,5.4-5.4,5.4H27c-3,0-5.4-2.4-5.4-5.4V35.1c0-3,2.4-5.4,5.4-5.4h45.9
			c3,0,5.4,2.4,5.4,5.4V54.1z M59.4,54.1h2.7V46h8.1v-2.7h-8.1v-5.4h10.8v-2.7H59.4V54.1z"/>
	</g>
</g>
</svg>
