<?xml version="1.0" encoding="utf-8"?>
<!-- Generator: Adobe Illustrator 17.1.0, SVG Export Plug-In . SVG Version: 6.00 Build 0)  -->
<!DOCTYPE svg PUBLIC "-//W3C//DTD SVG 1.1//EN" "http://www.w3.org/Graphics/SVG/1.1/DTD/svg11.dtd">
<svg version="1.1" id="Layer_1" xmlns="http://www.w3.org/2000/svg" xmlns:xlink="http://www.w3.org/1999/xlink" x="0px" y="0px"
	 viewBox="0 0 80 80" enable-background="new 0 0 80 80" xml:space="preserve">
<path fill-rule="evenodd" clip-rule="evenodd" fill="#0072BC" d="M40,0c22.1,0,40,17.9,40,40c0,22.1-17.9,40-40,40
	C17.9,80,0,62.1,0,40C0,17.9,17.9,0,40,0z"/>
<g>
	<g>
		<path fill="none" stroke="#FFFFFF" stroke-width="2" stroke-miterlimit="10" d="M40.5,38.9c5.8,0,10.5-4.7,10.5-10.5
			c0-5.8-4.7-10.5-10.5-10.5c-5.8,0-10.5,4.7-10.5,10.5C30,34.2,34.7,38.9,40.5,38.9c-11.4,0-20.8,9-21.4,20.3l42.7-0.6
			C60.9,47.5,51.7,38.9,40.5,38.9z"/>
	</g>
</g>
</svg>
