<?xml version="1.0" encoding="utf-8"?>
<!-- Generator: Adobe Illustrator 17.1.0, SVG Export Plug-In . SVG Version: 6.00 Build 0)  -->
<!DOCTYPE svg PUBLIC "-//W3C//DTD SVG 1.1//EN" "http://www.w3.org/Graphics/SVG/1.1/DTD/svg11.dtd">
<svg version="1.1" id="Layer_1" xmlns="http://www.w3.org/2000/svg" xmlns:xlink="http://www.w3.org/1999/xlink" x="0px" y="0px"
	 viewBox="0 0 70.1 54.3" enable-background="new 0 0 70.1 54.3" xml:space="preserve">
<path fill-rule="evenodd" clip-rule="evenodd" fill="#00548E" d="M22.6,51.7h19.5c0.7,0,1.3,0.6,1.3,1.3s-0.6,1.3-1.3,1.3H22.6
	c-0.7,0-1.3-0.6-1.3-1.3S21.9,51.7,22.6,51.7z"/>
<path fill-rule="evenodd" clip-rule="evenodd" fill="#FFFFFF" stroke="#00548E" stroke-width="2" stroke-miterlimit="10" d="
	M62.6,33.3c3.6,0,6.5,2.9,6.5,6.5v6.5c0,3.6-2.9,6.5-6.5,6.5s-6.5-2.9-6.5-6.5v-6.5C56.1,36.2,59,33.3,62.6,33.3z"/>
<g>
	<g>
		<path fill-rule="evenodd" clip-rule="evenodd" fill="#00548E" d="M41.9,28.8h6.5v-2.2h-6.5V28.8z M41.9,20h11.7v-2.2H41.9V20z
			 M41.9,9v2.2h11.7V9H41.9z"/>
	</g>
</g>
<path fill-rule="evenodd" clip-rule="evenodd" fill="#00548E" d="M26.1,18.4l-6.5-3.2v6.5L26.1,18.4"/>
<path fill-rule="evenodd" clip-rule="evenodd" fill="none" stroke="#00548E" stroke-width="2" stroke-miterlimit="10" d="M11.9,8.7
	h20.8c1.4,0,2.6,1.2,2.6,2.6v14.3c0,1.4-1.2,2.6-2.6,2.6H11.9c-1.4,0-2.6-1.2-2.6-2.6V11.3C9.3,9.9,10.4,8.7,11.9,8.7z"/>
<path fill-rule="evenodd" clip-rule="evenodd" fill="none" stroke="#00548E" stroke-width="2" stroke-miterlimit="10" d="M56,46.5
	H3.6c-1.4,0-2.6-1.2-2.6-2.6V3.6C1,2.2,2.2,1,3.6,1h57.2c1.4,0,2.6,1.2,2.6,2.6v29.8"/>
<path fill-rule="evenodd" clip-rule="evenodd" fill="#00548E" d="M62.8,37.7c0.7,0,1.3,0.6,1.3,1.3v1.3c0,0.7-0.6,1.3-1.3,1.3
	c-0.7,0-1.3-0.6-1.3-1.3V39C61.5,38.3,62.1,37.7,62.8,37.7z"/>
</svg>
