<?xml version="1.0" encoding="utf-8"?>
<!-- Generator: Adobe Illustrator 17.1.0, SVG Export Plug-In . SVG Version: 6.00 Build 0)  -->
<!DOCTYPE svg PUBLIC "-//W3C//DTD SVG 1.1//EN" "http://www.w3.org/Graphics/SVG/1.1/DTD/svg11.dtd">
<svg version="1.1" id="Layer_1" xmlns="http://www.w3.org/2000/svg" xmlns:xlink="http://www.w3.org/1999/xlink" x="0px" y="0px"
	 viewBox="0 0 38 46" enable-background="new 0 0 38 46" xml:space="preserve">
<g>
	<g>
		<path fill="#00548E" d="M8,6h24c0.6,0,1-0.4,1-1c0-0.6-0.4-1-1-1H8C7.4,4,7,4.4,7,5C7,5.6,7.4,6,8,6z M24,22h-6c-0.6,0-1,0.4-1,1
			c0,0.6,0.4,1,1,1h6c0.6,0,1-0.4,1-1C25,22.4,24.6,22,24,22z M28,17H14c-0.6,0-1,0.4-1,1c0,0.6,0.4,1,1,1h14c0.6,0,1-0.4,1-1
			C29,17.4,28.6,17,28,17z M4,10C4,10,4,10,4,10C4,10,4,10,4,10C4,10,4,10,4,10C4,10,4,10,4,10C4,10,4,10,4,10C4,10,4,10,4,10
			C4,10,4,10,4,10L4,10C4,10.1,4,10.1,4,10z M38,45V1c-0.2-1-1.2-1-1.5-1H4.9C2.7,0,0,2.7,0,4.8v37.1c0,2.1,1.5,3.9,4.7,4.1
			c0.1,0,0.1,0,0.2,0c0,0,0.1,0,0.1,0c0.1,0,1.9,0,2,0h29.5C38.1,46,38,45.3,38,45z M4,10.1V43c-1,0.2-2-0.7-2-2.2V8.3
			C2.3,8.7,3.4,9.7,4,10.1C3.9,10,4,9.9,4,10.1C4.1,10,4,10,4,10.1C4.3,10.4,4,10.2,4,10.1z M6.4,44L6,44V10h30l0,34H6.4z M36,8H6
			C5.8,8,5.2,8,5,8V2c0.1,0,0,0-0.1,0H36L36,8z"/>
	</g>
</g>
</svg>
