<?xml version="1.0" encoding="utf-8"?>
<!-- Generator: Adobe Illustrator 17.1.0, SVG Export Plug-In . SVG Version: 6.00 Build 0)  -->
<!DOCTYPE svg PUBLIC "-//W3C//DTD SVG 1.1//EN" "http://www.w3.org/Graphics/SVG/1.1/DTD/svg11.dtd">
<svg version="1.1" id="Layer_1" xmlns="http://www.w3.org/2000/svg" xmlns:xlink="http://www.w3.org/1999/xlink" x="0px" y="0px"
	 viewBox="0 0 41 47" enable-background="new 0 0 41 47" xml:space="preserve">
<g>
	<g>
		<path fill="#00548E" d="M39.9,12.1h-1.1c-0.6,0-1.1,0.5-1.1,1.1s0.5,1.1,1.1,1.1v30.6H14.5c0-0.6-0.5-1.1-1.1-1.1
			c-0.6,0-1.1,0.5-1.1,1.1v1.1c0,0.6,0.5,1.1,1.1,1.1h26.5c0.6,0,1.1-0.5,1.1-1.1V13.2C41,12.6,40.5,12.1,39.9,12.1z M36.9,41.9V9.1
			c0-0.6-0.5-1.1-1.1-1.1h-1.1c-0.6,0-1.1,0.5-1.1,1.1c0,0.6,0.5,1.1,1.1,1.1v30.6H10.4c0-0.6-0.5-1.1-1.1-1.1
			c-0.6,0-1.1,0.5-1.1,1.1v1.1c0,0.6,0.5,1.1,1.1,1.1h26.5C36.4,43,36.9,42.5,36.9,41.9z M32.8,37.9V5.1c0-0.6-0.5-1.1-1.1-1.1h-3.6
			C27.5,4,27,4.5,27,5.1c0,0.6,0.5,1.1,1.1,1.1h2.5v30.6H6.3c0-0.6-0.5-1.1-1.1-1.1c-0.6,0-1.1,0.5-1.1,1.1v1.1
			c0,0.6,0.5,1.1,1.1,1.1h26.5C32.3,38.9,32.8,38.4,32.8,37.9z M28.6,33.8v-25c0,0,0-0.1,0-0.1c0,0,0-0.1,0-0.1c0,0,0,0,0,0
			c0,0,0-0.1,0-0.1c0,0,0,0,0,0c0,0,0-0.1,0-0.1c0,0,0,0,0,0c0,0,0-0.1,0-0.1c0,0,0,0,0,0c0,0,0,0,0-0.1c0,0,0,0,0,0c0,0,0,0,0-0.1
			c0,0,0,0,0,0c0,0,0,0-0.1-0.1c0,0,0,0,0,0l-7.9-7.8c0,0,0,0,0,0c0,0,0,0-0.1-0.1c0,0,0,0,0,0c0,0,0,0-0.1,0c0,0,0,0,0,0
			c0,0,0,0-0.1,0c0,0,0,0,0,0c0,0-0.1,0-0.1,0c0,0,0,0,0,0c0,0-0.1,0-0.1,0c0,0,0,0,0,0c0,0-0.1,0-0.1,0c0,0,0,0,0,0
			c0,0-0.1,0-0.1,0c0,0-0.1,0-0.1,0H1.1C0.5,0,0,0.5,0,1.1v32.8c0,0.6,0.5,1.1,1.1,1.1h26.5C28.2,34.9,28.6,34.4,28.6,33.8z
			 M20.7,3.6l4.2,4.1h-4.2V3.6z M26.5,32.8H2.2V2.1h16.4v6.7c0,0.6,0.5,1.1,1.1,1.1h6.8V32.8z"/>
	</g>
</g>
</svg>
