<?xml version="1.0" encoding="utf-8"?>
<!-- Generator: Adobe Illustrator 17.1.0, SVG Export Plug-In . SVG Version: 6.00 Build 0)  -->
<!DOCTYPE svg PUBLIC "-//W3C//DTD SVG 1.1//EN" "http://www.w3.org/Graphics/SVG/1.1/DTD/svg11.dtd">
<svg version="1.1" id="Layer_1" xmlns="http://www.w3.org/2000/svg" xmlns:xlink="http://www.w3.org/1999/xlink" x="0px" y="0px"
	 viewBox="0 0 47.7 54.9" enable-background="new 0 0 47.7 54.9" xml:space="preserve">
<g>
	<g>
		<path fill="none" stroke="#00548E" stroke-width="2" stroke-miterlimit="10" d="M36,41c-5.9,0-10.7,5.8-10.7,12.9h21.4
			C46.7,46.8,42,41,36,41z M36.4,41c2.4,0,4.3-1.9,4.3-4.3c0-2.4-1.9-4.3-4.3-4.3s-4.3,1.9-4.3,4.3C32.2,39.1,34.1,41,36.4,41z"/>
	</g>
</g>
<path fill="#00548E" d="M29.9,26.4h7.4v-9.1h-7.4h-1.6h-5.8h-1.6h-5.8h-1.6H6.1v7.4v1.6v5.8v1.6v7.4h7.4h1.6h7.4v-7.4h7.4V26.4z
	 M29.9,19h5.8v5.8h-5.8V19z M22.5,19h5.8v5.8h-5.8V19z M15.1,19h5.8v5.8h-5.8V19z M20.9,32.1h-5.8v-5.8h5.8V32.1z M7.7,19h5.8v5.8
	H7.7V19z M7.7,26.4h5.8v5.8H7.7V26.4z M13.5,39.6H7.7v-5.8h5.8V39.6z M20.9,39.6h-5.8v-5.8h5.8V39.6z M28.3,32.1h-5.8v-5.8h5.8V32.1
	z"/>
<path fill="#00548E" d="M21.4,45.3H1.6V13.2h39.5v14c0,0.5,0.4,0.8,0.8,0.8c0.5,0,0.8-0.4,0.8-0.8V12.4V4.1c0-0.5-0.4-0.8-0.8-0.8
	h-4.1V0.8C37.8,0.4,37.4,0,37,0h-5.8c-0.5,0-0.8,0.4-0.8,0.8v2.5H12.3V0.8C12.3,0.4,12,0,11.5,0H5.8C5.3,0,4.9,0.4,4.9,0.8v2.5H0.8
	C0.4,3.3,0,3.7,0,4.1v8.2v33.8C0,46.6,0.4,47,0.8,47h20.5c0.5,0,0.8-0.4,0.8-0.8C22.2,45.7,21.8,45.3,21.4,45.3z M32.1,1.6h4.1v2.5
	v2.5h-4.1V4.1V1.6z M6.6,1.6h4.1v2.5v2.5H6.6V4.1V1.6z M1.6,4.9h3.3v2.5c0,0.5,0.4,0.8,0.8,0.8h5.8c0.5,0,0.8-0.4,0.8-0.8V4.9h18.1
	v2.5c0,0.5,0.4,0.8,0.8,0.8H37c0.5,0,0.8-0.4,0.8-0.8V4.9h3.3v6.6H1.6V4.9z"/>
</svg>
