<?xml version="1.0" encoding="utf-8"?>
<!-- Generator: Adobe Illustrator 17.1.0, SVG Export Plug-In . SVG Version: 6.00 Build 0)  -->
<!DOCTYPE svg PUBLIC "-//W3C//DTD SVG 1.1//EN" "http://www.w3.org/Graphics/SVG/1.1/DTD/svg11.dtd">
<svg version="1.1" id="Layer_1" xmlns="http://www.w3.org/2000/svg" xmlns:xlink="http://www.w3.org/1999/xlink" x="0px" y="0px"
	 viewBox="0 0 58 45.1" enable-background="new 0 0 58 45.1" xml:space="preserve">
<g>
	<g>
		<path fill="#00548E" d="M20.1,26.4H8.2c-0.3,0-0.5,0.3-0.5,0.7v0.4c0,0.4,0.2,0.7,0.5,0.7h11.9c0.3,0,0.5-0.3,0.5-0.7v-0.4
			C20.6,26.7,20.4,26.4,20.1,26.4z M49.8,26.4H37.9c-0.3,0-0.5,0.3-0.5,0.7v0.4c0,0.4,0.2,0.7,0.5,0.7h11.9c0.3,0,0.5-0.3,0.5-0.7
			v-0.4C50.3,26.7,50,26.4,49.8,26.4z M20.1,18.8H8.2c-0.3,0-0.5,0.3-0.5,0.7v0.4c0,0.4,0.2,0.7,0.5,0.7h11.9c0.3,0,0.5-0.3,0.5-0.7
			v-0.4C20.6,19.2,20.4,18.8,20.1,18.8z M20.1,11.4H8.2c-0.3,0-0.5,0.3-0.5,0.7v0.4c0,0.4,0.2,0.7,0.5,0.7h11.9
			c0.3,0,0.5-0.3,0.5-0.7v-0.4C20.6,11.7,20.4,11.4,20.1,11.4z M49.8,18.8H37.9c-0.3,0-0.5,0.3-0.5,0.7v0.4c0,0.4,0.2,0.7,0.5,0.7
			h11.9c0.3,0,0.5-0.3,0.5-0.7v-0.4C50.3,19.2,50,18.8,49.8,18.8z M49.8,11.4H37.9c-0.3,0-0.5,0.3-0.5,0.7v0.4
			c0,0.4,0.2,0.7,0.5,0.7h11.9c0.3,0,0.5-0.3,0.5-0.7v-0.4C50.3,11.7,50,11.4,49.8,11.4z M50.9,0H35c-2.5,0-4.8,1.3-6,3.3
			c-1.2-2-3.5-3.3-6-3.3H7.1C3.2,0,0,3.1,0,6.9v27.2C0,37.9,3.2,41,7.1,41H23c2.4,0,4.5,1.8,4.9,4.1h2.2c0.4-2.3,2.5-4.1,4.9-4.1
			h15.9c3.9,0,7.1-3.1,7.1-6.9V6.9C58,3.1,54.8,0,50.9,0z M27.9,41c-1.3-1.2-3-2-5-2H7.1c-2.7,0-5-2.2-5-4.8V6.9
			c0-2.7,2.2-4.8,5-4.8H23c2.7,0,5,2.2,5,4.8V41z M55.9,34.1c0,2.7-2.2,4.8-5,4.8H35c-1.9,0-3.7,0.8-5,2V6.9c0-2.7,2.2-4.8,5-4.8
			h15.9c2.7,0,5,2.2,5,4.8V34.1z"/>
	</g>
</g>
</svg>
