<?xml version="1.0" encoding="utf-8"?>
<!-- Generator: Adobe Illustrator 17.1.0, SVG Export Plug-In . SVG Version: 6.00 Build 0)  -->
<!DOCTYPE svg PUBLIC "-//W3C//DTD SVG 1.1//EN" "http://www.w3.org/Graphics/SVG/1.1/DTD/svg11.dtd">
<svg version="1.1" id="Layer_1" xmlns="http://www.w3.org/2000/svg" xmlns:xlink="http://www.w3.org/1999/xlink" x="0px" y="0px"
	 viewBox="0 0 55.2 55.2" enable-background="new 0 0 55.2 55.2" xml:space="preserve">
<path fill-rule="evenodd" clip-rule="evenodd" fill="none" stroke="#00548E" stroke-width="2" stroke-miterlimit="10" d="M8.5,4.1
	c0,0,6.7-6.4,19.6-0.8c13,5.6,25.8,5.2,25.9,5.9l-9.4,10.2l8.9,9.4c0,0-10.7,6.3-20.9,0.8S16.1,23,9.2,28.9"/>
<g>
	<g>
		<path fill-rule="evenodd" clip-rule="evenodd" fill="#00548E" d="M3.9,49.6h10.4c0.7,0,1.3-0.5,1.3-1s-0.6-1-1.3-1H9.9v-44
			c0-0.7-0.5-1.3-1-1.3c-0.6,0-1,0.6-1,1.3v44H3.9c-0.7,0-1.3,0.5-1.3,1S3.2,49.6,3.9,49.6z M17,53.2H1.3c-0.7,0-1.3,0.4-1.3,1
			s0.6,1,1.3,1H17c0.7,0,1.3-0.4,1.3-1S17.7,53.2,17,53.2z"/>
	</g>
</g>
</svg>
