<?xml version="1.0" encoding="utf-8"?>
<!-- Generator: Adobe Illustrator 17.1.0, SVG Export Plug-In . SVG Version: 6.00 Build 0)  -->
<!DOCTYPE svg PUBLIC "-//W3C//DTD SVG 1.1//EN" "http://www.w3.org/Graphics/SVG/1.1/DTD/svg11.dtd">
<svg version="1.1" id="Layer_1" xmlns="http://www.w3.org/2000/svg" xmlns:xlink="http://www.w3.org/1999/xlink" x="0px" y="0px"
	 viewBox="0 0 110 119.4" enable-background="new 0 0 110 119.4" xml:space="preserve">
<path fill-rule="evenodd" clip-rule="evenodd" fill="#6DCFF6" d="M5,9.4h100c2.8,0,5,2.2,5,5v100c0,2.8-2.2,5-5,5H5
	c-2.8,0-5-2.2-5-5v-100C0,11.7,2.2,9.4,5,9.4z"/>
<path fill-rule="evenodd" clip-rule="evenodd" fill="#FFFFFF" d="M55,20.1c16.3,0,29.5,13.2,29.5,29.5c0,16.3-13.2,29.5-29.5,29.5
	S25.5,65.9,25.5,49.6C25.5,33.3,38.7,20.1,55,20.1z"/>
<path fill-rule="evenodd" clip-rule="evenodd" fill="#CCCCCC" d="M90.2,0c1.1,0,2,0.9,2,2v4c0,1.1-0.9,2-2,2c-1.1,0-2-0.9-2-2V2
	C88.2,0.9,89.1,0,90.2,0z"/>
<path fill-rule="evenodd" clip-rule="evenodd" fill="#CCCCCC" d="M21.7,0c1.1,0,2,0.9,2,2v4c0,1.1-0.9,2-2,2c-1.1,0-2-0.9-2-2V2
	C19.7,0.9,20.6,0,21.7,0z"/>
</svg>
